# Blender v2.91.0 OBJ File: 'drop.blend'
# www.blender.org
mtllib drop.mtl
o Icosphere
v -0.502440 -0.674987 0.414323
v -0.339804 -0.617456 0.642265
v -0.373065 -0.377807 0.731832
v -0.595821 -0.254191 0.569700
v -0.665480 -0.447873 0.427583
v -0.641787 -0.648495 0.028382
v -0.813219 -0.419785 0.018398
v -0.862385 -0.312117 -0.243324
v -0.734862 -0.437092 -0.426797
v -0.635915 -0.636420 -0.281377
v -0.363390 -0.714894 -0.481709
v -0.496973 -0.505592 -0.601669
v -0.236560 -0.477939 -0.754146
v 0.084814 -0.497850 -0.780174
v 0.039336 -0.705578 -0.601650
v -0.105200 -0.819054 -0.377984
v 0.022692 1.438916 -0.362014
v -0.154792 1.666149 -0.249720
v -0.144233 1.825881 -0.071287
v 0.121011 1.856153 0.014510
v 0.212020 1.735282 -0.162424
v 0.660733 -0.584407 0.314323
v 0.685785 -0.634584 0.044772
v 0.846708 -0.399729 0.077742
v 0.843367 -0.311104 0.313039
v 0.594355 -0.311736 0.605448
v 0.227810 -0.886462 0.164990
v 0.174238 -0.928802 -0.068703
v 0.323610 -0.817225 -0.287018
v 0.525040 -0.797304 -0.059933
v 0.476621 -0.770781 0.194396
v -0.082243 -0.907337 0.250524
v -0.272648 -0.728827 0.509563
v -0.401225 -0.842839 0.214320
v -0.372785 -0.848997 -0.077995
v -0.114249 -0.948225 0.010881
v 0.565733 -0.634584 -0.329877
v 0.370761 -0.628683 -0.599800
v 0.348018 -0.436783 -0.778704
v 0.551944 -0.332970 -0.682275
v 0.714345 -0.399730 -0.335327
v 0.927171 -0.171123 -0.037769
v 0.759730 -0.109778 -0.391764
v 0.908189 0.159824 -0.110218
v 0.922407 0.155202 0.125842
v 0.911774 -0.116751 0.214835
v -0.184480 -0.538780 0.731162
v 0.068227 -0.582999 0.628711
v 0.327305 -0.486844 0.628281
v 0.368386 -0.245616 0.818222
v 0.240993 -0.046129 0.877962
v 0.047245 0.528713 0.710596
v -0.062482 -0.220488 0.909590
v 0.518745 -0.159246 0.759700
v 0.752062 -0.126963 0.499308
v 0.640283 0.137164 0.628351
v 0.441188 0.068868 0.800043
v -0.856773 -0.194622 0.268284
v -0.814978 0.035949 0.387199
v -0.720328 0.765468 0.215666
v -0.895981 0.153975 0.118826
v -0.901936 -0.107646 -0.016402
v -0.724133 -0.198794 -0.575877
v -0.851566 -0.071825 -0.393652
v -0.815814 0.210986 -0.481588
v -0.521522 0.960948 -0.424640
v -0.616165 0.210430 -0.666730
v -0.545511 -0.060676 -0.719067
v 0.170762 0.166089 -0.895652
v 0.239949 1.495195 -0.263081
v 0.412880 0.158576 -0.792491
v 0.469471 -0.110509 -0.791588
v 0.277516 -0.246613 -0.872150
v 0.057428 -0.094650 -0.894465
v -0.630347 1.207307 -0.196807
v -0.510232 1.598571 -0.033975
v -0.332331 1.771020 -0.066835
v -0.403765 1.593532 -0.243827
v 0.343153 0.780916 0.506757
v 0.483222 1.277933 0.158479
v 0.420974 1.405338 -0.074012
v 0.241472 1.729771 -0.127900
v 0.121011 1.856153 0.014510
v 0.193004 1.708722 0.180969
v -0.496309 0.946273 0.435983
v -0.264373 0.933403 0.585779
v -0.160324 1.715057 0.377678
v 0.121011 1.856153 0.014510
v -0.266913 1.816625 0.114088
v -0.402366 1.673769 0.264342
vt 0.435729 0.246502
vt 0.315582 0.246502
vt 0.454537 0.346588
vt 0.863631 0.109887
vt 0.864130 0.153111
vt 0.881890 0.141513
vt 0.348867 0.152353
vt 0.316899 0.214813
vt 0.408955 0.214813
vt 0.640063 0.137356
vt 0.623246 0.107828
vt 0.571871 0.137356
vt 0.117280 0.229012
vt 0.074960 0.190238
vt 0.100096 0.276794
vt 0.301605 0.150026
vt 0.257971 0.165472
vt 0.278101 0.195950
vt 0.479293 0.102799
vt 0.430044 0.119674
vt 0.479025 0.137013
vt 0.611994 0.244157
vt 0.486876 0.244157
vt 0.579050 0.319909
vt 0.315810 0.292313
vt 0.300386 0.323370
vt 0.395576 0.349767
vt 0.185240 0.390287
vt 0.199160 0.349689
vt 0.157641 0.355141
vt 0.745610 0.243979
vt 0.660912 0.243979
vt 0.695097 0.310963
vt 0.826623 0.394814
vt 0.826623 0.394814
vt 0.826623 0.394814
vt 0.518603 0.338873
vt 0.522151 0.357752
vt 0.535946 0.353126
vt 0.759910 0.112881
vt 0.720593 0.146702
vt 0.790128 0.165222
vt 0.152523 0.274068
vt 0.135376 0.321744
vt 0.203835 0.312755
vt 0.256168 0.242687
vt 0.166999 0.242687
vt 0.231876 0.291602
vt 0.811020 0.221952
vt 0.783752 0.235758
vt 0.752223 0.277568
vt 0.453679 0.033906
vt 0.424685 0.084126
vt 0.473096 0.067538
vt 0.177401 0.174774
vt 0.101117 0.174774
vt 0.138056 0.208618
vt 0.833862 0.255409
vt 0.749971 0.334760
vt 0.888517 0.333304
vt 0.687784 0.188486
vt 0.672012 0.216164
vt 0.719960 0.216164
vt 0.792632 0.203888
vt 0.745507 0.191336
vt 0.772152 0.214257
vt 0.461577 0.167296
vt 0.406779 0.153526
vt 0.446165 0.194467
vt 0.221663 0.186618
vt 0.185935 0.217352
vt 0.241961 0.217352
vt 0.897330 0.177802
vt 0.861818 0.200994
vt 0.914977 0.276758
vt 0.827862 0.067334
vt 0.796417 0.085162
vt 0.828714 0.141102
vt 0.303990 0.110552
vt 0.267150 0.070085
vt 0.254003 0.128247
vt 0.507983 0.184691
vt 0.489954 0.216476
vt 0.563275 0.216476
vt 0.645880 0.175129
vt 0.570696 0.175129
vt 0.627329 0.207685
vt 0.087888 0.133159
vt 0.056489 0.141755
vt 0.050432 0.157461
vt 0.077579 0.157461
vt 0.102868 0.157461
vt 0.159838 0.133159
vt 0.179152 0.157461
vt 0.226268 0.157461
vt 0.227889 0.157461
vt 0.197302 0.134133
vt 0.392326 0.078588
vt 0.390940 0.110168
vt 0.386671 0.117562
vt 0.399647 0.113116
vt 0.416664 0.107285
vt 0.412331 0.073118
vt 0.451636 0.359899
vt 0.469425 0.372713
vt 0.482095 0.381839
vt 0.480421 0.372931
vt 0.684253 0.133992
vt 0.633956 0.157461
vt 0.647910 0.157461
vt 0.681202 0.157461
vt 0.681202 0.157461
vt 0.492718 0.046574
vt 0.475822 0.087015
vt 0.465913 0.090410
vt 0.498312 0.079309
vt 0.500000 0.078731
vt 0.471849 0.010427
vt 0.454545 0.000000
vt 0.453078 0.002541
vt 0.433551 0.036363
vt 0.441325 0.022898
vt 0.515646 0.125100
vt 0.499511 0.141142
vt 0.477011 0.149542
vt 0.499383 0.157461
vt 0.499557 0.135249
vt 0.619757 0.207756
vt 0.572933 0.199742
vt 0.611477 0.236191
vt 0.636339 0.236191
vt 0.636339 0.236191
vt 0.233153 0.309167
vt 0.240786 0.314921
vt 0.242803 0.310859
vt 0.714600 0.313269
vt 0.705967 0.324717
vt 0.693595 0.341964
vt 0.691385 0.344053
vt 0.703275 0.332808
vt 0.082334 0.267319
vt 0.099044 0.324861
vt 0.101470 0.333213
vt 0.102049 0.331601
vt 0.105106 0.323102
vt 0.485561 0.053721
vt 0.464692 0.017575
vt 0.136489 0.087751
vt 0.104241 0.090756
vt 0.438112 0.135772
vt 0.054880 0.172778
vt 0.537608 0.363221
vt 0.537608 0.363221
vt 0.171258 0.422086
vt 0.171258 0.422086
vt 0.314779 0.335440
vt 0.386694 0.355383
vt 0.641087 0.245496
vt 0.679010 0.319805
vt 0.499662 0.121879
vt 0.499893 0.092351
vt 0.403450 0.088501
vt 0.067340 0.113621
vt 0.671580 0.140567
vt 0.652318 0.106746
vn -0.2433 0.3508 -0.9043
vn 0.0155 -0.7620 0.6474
vn -0.2837 -0.1302 -0.9500
vn 0.7639 -0.5971 -0.2448
vn -0.5205 0.1370 0.8428
vn -0.6150 -0.3981 -0.6806
vn 0.2004 -0.8521 -0.4834
vn 0.7674 0.3164 -0.5577
vn -0.1076 0.2917 -0.9504
vn -0.2803 0.9499 -0.1381
vn 0.8246 0.3088 0.4740
vn 0.0000 1.0000 0.0000
vn 0.7435 0.3303 -0.5815
vn 0.3473 -0.7254 0.5942
vn -0.9170 0.3074 0.2541
vn -0.9711 0.2121 -0.1095
vn 0.1288 0.3928 0.9106
vn -0.0232 -0.9486 -0.3156
vn -0.8424 -0.4651 0.2722
vn 0.4662 0.3137 0.8272
vn 0.8713 -0.0606 0.4870
vn 0.5372 -0.4532 0.7114
vn 0.0999 -0.4087 -0.9072
vn -0.9899 -0.0405 -0.1360
vn -0.5435 0.1373 0.8281
vn 0.2141 -0.7819 0.5854
vn -0.4556 -0.8416 -0.2901
vn 0.8092 0.0113 -0.5875
vn 0.8554 -0.4396 -0.2741
vn -0.6484 -0.3735 0.6634
vn -0.8140 -0.5732 -0.0945
vn -0.1928 -0.7073 -0.6801
vn 0.0724 0.6810 -0.7287
vn 0.7682 -0.5231 0.3692
vn 0.3680 -0.9298 0.0021
vn -0.2686 -0.9365 0.2257
vn 0.6814 -0.5234 -0.5115
vn 0.9796 -0.0122 -0.2007
vn 0.1212 -0.2802 0.9523
vn 0.7035 0.0262 0.7102
vn -0.9489 0.1025 0.2984
vn -0.6932 0.1334 -0.7083
vn 0.3449 0.2492 -0.9049
vn -0.7681 0.4987 -0.4017
vn 0.7548 0.4751 0.4523
vn -0.4052 0.5017 0.7642
vn -0.7813 -0.5751 0.2426
vn -0.5623 -0.6511 -0.5099
vn -0.3130 -0.3703 0.8746
vn -0.9615 -0.2653 0.0715
vn -0.4643 -0.2730 -0.8425
vn 0.4493 -0.5987 0.6632
vn 0.8131 -0.5206 -0.2605
vn 0.1084 -0.9822 0.1531
vn -0.6078 -0.7929 -0.0424
vn 0.1580 -0.6633 -0.7315
vn 0.8658 -0.2227 -0.4481
vn 0.3023 0.3590 0.8830
vn 0.7338 -0.2677 0.6244
vn -0.5320 0.1372 0.8355
vn -0.6767 0.3160 -0.6650
vn 0.2926 0.3985 -0.8693
vn -0.0946 -0.2774 -0.9561
vn 0.5009 0.8127 -0.2976
vn -0.1067 0.9941 -0.0210
vn -0.2287 0.7320 -0.6418
vn -0.6881 0.7226 0.0667
vn 0.3187 0.7738 0.5475
vn 0.7979 0.1659 -0.5795
vn 0.7555 0.3234 -0.5697
vn -0.2716 0.1137 -0.9557
vn -0.1760 0.3222 -0.9302
vn -0.9885 0.0865 -0.1238
vn -0.9616 0.2646 0.0736
vn -0.0450 0.2626 0.9639
vn 0.5234 0.3851 0.7601
vn 0.8630 0.1263 0.4891
vn 0.9297 0.3651 -0.0488
vn 0.5067 -0.2215 -0.8331
vn -0.8659 -0.2367 -0.4406
vn -0.7720 0.2387 0.5891
vn -0.7609 -0.1831 0.6225
vn 0.3796 -0.0344 0.9245
vn 0.9538 -0.2763 0.1176
vn 0.5110 -0.7680 -0.3859
vn 0.0896 -0.9104 -0.4040
vn -0.2456 -0.9182 -0.3107
vn -0.3820 -0.7939 0.4730
vn 0.6305 -0.7504 0.1983
vn 0.1154 -0.7762 0.6198
vn 0.2814 -0.7557 0.5914
vn -0.7072 -0.6754 0.2090
usemtl None
s off
f 69/1/1 67/2/1 17/3/1
f 33/4/2 47/5/2 2/6/2
f 13/7/3 68/8/3 74/9/3
f 23/10/4 30/11/4 37/12/4
f 59/13/5 4/14/5 85/15/5
f 12/16/6 9/17/6 63/18/6
f 29/19/7 15/20/7 38/21/7
f 44/22/8 71/23/8 81/24/8
f 66/25/9 78/26/9 18/27/9
f 19/28/10 77/29/10 89/30/10
f 56/31/11 45/32/11 80/33/11
f 88/34/12 83/35/12 20/36/12
f 70/37/13 21/38/13 82/39/13
f 31/40/14 22/41/14 49/42/14
f 60/43/15 90/44/15 76/45/15
f 65/46/16 61/47/16 75/48/16
f 51/49/17 57/50/17 79/51/17
f 36/52/18 16/53/18 28/54/18
f 7/55/19 5/56/19 58/57/19
f 52/58/20 84/59/20 87/60/20
f 25/61/21 46/62/21 55/63/21
f 50/64/22 26/65/22 54/66/22
f 39/67/23 14/68/23 73/69/23
f 8/70/24 62/71/24 64/72/24
f 3/73/25 53/74/25 86/75/25
f 32/76/26 27/77/26 48/78/26
f 11/79/27 35/80/27 10/81/27
f 40/82/28 72/83/28 43/84/28
f 24/85/29 41/86/29 42/87/29
f 1/88/30 2/89/30 3/90/30 4/91/30 5/92/30
f 6/93/31 7/94/31 8/95/31 9/96/31 10/97/31
f 11/98/32 12/99/32 13/100/32 14/101/32 15/102/32 16/103/32
f 17/3/33 18/104/33 19/105/33 20/106/33 21/107/33
f 22/108/34 23/109/34 24/110/34 25/111/34 26/112/34
f 27/113/35 28/114/35 29/115/35 30/116/35 31/117/35
f 32/118/36 33/119/36 34/120/36 35/121/36 36/122/36
f 37/123/37 38/124/37 39/125/37 40/126/37 41/127/37
f 42/128/38 43/129/38 44/130/38 45/131/38 46/132/38
f 47/5/39 48/78/39 49/42/39 50/64/39 51/49/39 52/58/39 53/74/39
f 54/66/40 55/63/40 56/31/40 57/50/40
f 58/57/41 59/13/41 60/43/41 61/47/41 62/71/41
f 63/18/42 64/72/42 65/46/42 66/25/42 67/2/42 68/8/42
f 69/1/43 70/37/43 71/23/43 72/83/43 73/69/43 74/9/43
f 75/48/44 76/133/44 77/134/44 78/135/44
f 79/51/45 80/136/45 81/137/45 82/138/45 83/139/45 84/140/45
f 85/15/46 86/141/46 87/142/46 88/143/46 89/144/46 90/145/46
f 5/56/47 7/55/47 6/93/47 1/88/47
f 9/17/48 12/16/48 11/79/48 10/81/48
f 53/74/49 3/73/49 2/6/49 47/5/49
f 62/71/50 8/70/50 7/55/50 58/57/50
f 68/8/51 13/7/51 12/16/51 63/18/51
f 26/65/52 50/64/52 49/42/52 22/41/52
f 41/86/53 24/85/53 23/10/53 37/12/53
f 36/52/54 28/54/54 27/146/54 32/147/54
f 10/97/55 35/148/55 34/149/55 6/93/55
f 14/150/56 39/125/56 38/21/56 15/20/56
f 40/82/57 43/84/57 42/87/57 41/86/57
f 84/59/58 52/58/58 51/49/58 79/51/58
f 25/61/59 55/63/59 54/66/59 26/65/59
f 3/151/60 86/141/60 85/15/60 4/14/60
f 78/26/61 66/25/61 65/46/61 75/48/61
f 21/38/62 70/37/62 69/1/62 17/3/62
f 13/7/63 74/9/63 73/69/63 14/68/63
f 20/152/64 83/153/64 82/39/64 21/38/64
f 19/28/65 89/30/65 88/154/65 20/155/65
f 18/27/66 78/26/66 77/156/66 19/157/66
f 89/30/67 77/29/67 76/45/67 90/44/67
f 87/60/68 84/59/68 83/35/68 88/34/68
f 43/84/69 72/83/69 71/23/69 44/22/69
f 81/24/70 71/23/70 70/37/70 82/39/70
f 74/9/71 68/8/71 67/2/71 69/1/71
f 17/3/72 67/2/72 66/25/72 18/27/72
f 64/72/73 62/71/73 61/47/73 65/46/73
f 75/48/74 61/47/74 60/43/74 76/45/74
f 86/75/75 53/74/75 52/58/75 87/60/75
f 56/31/76 80/33/76 79/51/76 57/50/76
f 55/63/77 46/62/77 45/32/77 56/31/77
f 80/33/78 45/32/78 44/158/78 81/159/78
f 72/83/79 40/82/79 39/67/79 73/69/79
f 63/18/80 9/17/80 8/70/80 64/72/80
f 59/13/81 85/15/81 90/44/81 60/43/81
f 58/57/82 5/56/82 4/14/82 59/13/82
f 50/64/83 54/66/83 57/50/83 51/49/83
f 46/62/84 25/61/84 24/85/84 42/87/84
f 29/19/85 38/21/85 37/160/85 30/161/85
f 28/54/86 16/53/86 15/20/86 29/19/86
f 16/53/87 36/52/87 35/121/87 11/162/87
f 33/163/88 2/89/88 1/88/88 34/149/88
f 22/164/89 31/165/89 30/11/89 23/10/89
f 32/76/90 48/78/90 47/5/90 33/4/90
f 48/78/91 27/77/91 31/40/91 49/42/91
f 34/149/92 1/88/92 6/93/92
