# Blender v2.91.0 OBJ File: 'pointyRockCrystal.blend'
# www.blender.org
mtllib pointyRockCrystal.mtl
o Icosphere
v -0.235241 -1.872101 -0.724007
v 0.003618 1.399378 0.892291
v -0.584116 0.964467 -0.796989
v 0.440910 0.841607 -0.938088
v 1.028422 0.841608 0.129445
v -0.178166 2.833866 -0.129444
v 0.178166 -2.833866 0.129444
v -0.003618 -1.399378 0.892291
v 0.847501 -1.399370 0.279175
v -0.850254 -1.793597 -0.000000
v 0.527408 -1.399373 -0.719748
v 0.322581 0.143171 0.992798
v -0.889814 0.953030 0.520931
v -1.043889 -0.143171 -0.000000
v 0.338902 2.558483 0.246226
vt 0.272727 0.000000
vt 0.194689 0.137153
vt 0.340601 0.117562
vt 0.318592 0.288606
vt 0.681202 0.157461
vt 0.658666 0.274305
vt 0.818181 0.236191
vt 0.863020 0.157461
vt 0.985060 0.289045
vt 0.476848 0.274305
vt 0.499383 0.157461
vt 0.864252 0.314921
vt 0.727272 0.393651
vt 0.932540 0.431766
vt 0.106898 0.289045
vt 0.181818 0.393651
vt 0.351338 0.412450
vt 0.590909 0.393651
vt 0.522419 0.432483
vt 0.863635 0.393651
vt 0.181818 0.236191
vt 0.136065 0.116845
vt 0.000000 0.157461
vt 0.477994 0.040616
vt 0.386671 0.117562
vt 0.067874 0.039899
vt 0.636363 0.078731
vt 0.805883 0.059932
vn -0.6083 -0.6568 -0.4455
vn -0.7634 -0.1103 -0.6365
vn 0.7825 -0.0216 0.6223
vn -0.3545 0.0140 0.9350
vn -0.1413 -0.0428 -0.9890
vn 0.8760 -0.0132 -0.4821
vn 0.6556 0.2140 0.7242
vn -0.5248 0.4487 0.7233
vn -0.9357 0.2798 -0.2146
vn -0.0862 0.3516 -0.9322
vn 0.8177 0.3590 -0.4500
vn 0.6693 0.4484 -0.5924
vn -0.2961 0.5289 0.7953
vn -0.9470 0.2365 -0.2176
vn -0.3748 -0.0210 0.9269
vn 0.6575 0.2245 0.7192
vn 0.0640 -0.0943 -0.9935
vn -0.8003 -0.0939 -0.5922
vn -0.8743 -0.1026 0.4744
vn -0.6849 -0.1453 0.7140
vn 0.5756 -0.1738 0.7990
vn 0.9478 -0.0968 -0.3037
vn 0.3384 -0.5390 -0.7713
vn -0.5419 -0.4471 0.7117
vn 0.8803 -0.3813 -0.2821
vn 0.5504 -0.3366 0.7641
usemtl None
s off
f 7/1/1 10/2/1 1/3/1
f 1/3/2 10/2/2 3/4/2
f 9/5/3 5/6/3 12/7/3
f 8/8/4 12/7/4 13/9/4
f 1/3/5 3/4/5 4/10/5
f 11/11/6 4/10/6 5/6/6
f 2/12/7 5/6/7 15/13/7
f 13/9/8 2/12/8 6/14/8
f 3/4/9 13/15/9 6/16/9
f 4/10/10 3/4/10 6/17/10
f 5/6/11 4/10/11 15/18/11
f 15/18/12 4/10/12 6/19/12
f 6/14/13 2/12/13 15/20/13
f 14/21/14 13/15/14 3/4/14
f 13/9/15 12/7/15 2/12/15
f 12/7/16 5/6/16 2/12/16
f 11/11/17 1/3/17 4/10/17
f 3/4/18 10/2/18 14/21/18
f 14/21/19 10/22/19 13/15/19
f 10/22/20 8/23/20 13/15/20
f 8/8/21 9/5/21 12/7/21
f 9/5/22 11/11/22 5/6/22
f 7/24/23 1/25/23 11/11/23
f 7/26/24 8/23/24 10/22/24
f 9/5/25 7/27/25 11/11/25
f 7/28/26 9/5/26 8/8/26
