# Blender v2.91.0 OBJ File: 'polishedDrop.blend'
# www.blender.org
mtllib polishedDrop.mtl
o Icosphere
v -0.023457 -0.933829 0.072195
v -0.075910 -0.933829 0.000000
v -0.023457 -0.933829 -0.072195
v 0.061413 -0.933829 -0.044618
v 0.061413 -0.933829 0.044618
v 0.465738 -0.546954 0.338374
v 0.554534 -0.486478 0.287818
v 0.596241 -0.410804 0.373773
v 0.539732 -0.410804 0.451551
v 0.445096 -0.486478 0.438447
v -0.102370 -0.486478 0.616333
v -0.171231 -0.410804 0.682561
v -0.262664 -0.410804 0.652852
v -0.279445 -0.486478 0.558799
v -0.177892 -0.546954 0.547506
v -0.617803 -0.486478 0.093094
v -0.702069 -0.410804 0.048069
v -0.702069 -0.410804 -0.048069
v -0.617803 -0.486478 -0.093094
v -0.575682 -0.546954 -0.000000
v -0.279445 -0.486478 -0.558799
v -0.262664 -0.410804 -0.652852
v -0.171231 -0.410804 -0.682561
v -0.102370 -0.486478 -0.616333
v -0.177892 -0.546954 -0.547506
v 0.465738 -0.546954 -0.338374
v 0.445096 -0.486478 -0.438447
v 0.539732 -0.410804 -0.451551
v 0.596241 -0.410804 -0.373773
v 0.554534 -0.486478 -0.287818
v 0.330538 0.401883 0.843410
v 0.353060 0.486478 0.785363
v 0.250593 0.542803 0.771258
v 0.175985 0.486478 0.842897
v 0.228326 0.401882 0.876620
v -0.699989 0.401883 0.574988
v -0.637823 0.486478 0.578470
v -0.656073 0.542803 0.476659
v -0.747261 0.486478 0.427841
v -0.763160 0.401882 0.488040
v -0.763160 0.401882 -0.488040
v -0.747261 0.486478 -0.427841
v -0.656073 0.542803 -0.476659
v -0.637823 0.486478 -0.578470
v -0.699989 0.401883 -0.574988
v 0.228326 0.401882 -0.876620
v 0.175985 0.486478 -0.842897
v 0.250593 0.542803 -0.771258
v 0.353060 0.486478 -0.785363
v 0.330538 0.401883 -0.843410
v 0.904274 0.401882 -0.053736
v 0.856027 0.486478 -0.093094
v 0.810949 0.542803 0.000000
v 0.856027 0.486478 0.093094
v 0.904274 0.401882 0.053736
v 0.031118 0.735251 -0.095774
v -0.081470 0.735251 -0.059191
v -0.081470 0.735251 0.059191
v 0.031118 0.735251 0.095774
v 0.100702 0.735251 0.000000
v 0.042832 -0.850654 0.131822
v -0.012706 -0.791041 0.233427
v -0.077823 -0.790177 0.239520
v -0.126923 -0.791041 0.196316
v -0.112133 -0.850654 0.081472
v -0.029484 -0.916825 0.090746
v 0.147487 -0.791041 0.181376
v 0.042834 -0.850654 0.131821
v 0.077194 -0.916825 0.056084
v 0.138607 -0.850654 0.000000
v 0.218077 -0.791041 0.084218
v 0.203749 -0.790177 0.148030
v 0.152621 -0.546091 0.523052
v 0.183976 -0.546091 0.512863
v 0.278640 -0.486478 0.540793
v 0.252876 -0.412545 0.626285
v 0.163547 -0.412545 0.655310
v 0.092453 -0.486478 0.601290
v 0.544615 -0.546091 0.016484
v 0.544615 -0.546091 -0.016484
v 0.600431 -0.486478 -0.097885
v 0.673777 -0.412545 -0.046963
v 0.673777 -0.412545 0.046963
v 0.600431 -0.486478 0.097885
v 0.218077 -0.791041 -0.084218
v 0.138607 -0.850654 0.000000
v 0.077194 -0.916825 -0.056084
v 0.042834 -0.850654 -0.131821
v 0.147487 -0.791041 -0.181376
v 0.203749 -0.790177 -0.148030
v -0.112135 -0.850654 0.081469
v -0.225930 -0.791040 0.060047
v -0.251847 -0.790177 0.000000
v -0.225930 -0.791040 -0.060047
v -0.112135 -0.850654 -0.081469
v -0.095417 -0.916824 0.000000
v -0.450292 -0.546091 0.306779
v -0.430913 -0.546091 0.333452
v -0.428223 -0.486478 0.432113
v -0.517492 -0.412545 0.434029
v -0.572701 -0.412545 0.358040
v -0.543294 -0.486478 0.273733
v -0.112133 -0.850654 -0.081472
v -0.126923 -0.791041 -0.196316
v -0.077823 -0.790177 -0.239520
v -0.012706 -0.791041 -0.233427
v 0.042832 -0.850654 -0.131822
v -0.029484 -0.916825 -0.090746
v -0.430913 -0.546091 -0.333452
v -0.450292 -0.546091 -0.306779
v -0.543294 -0.486478 -0.273733
v -0.572701 -0.412545 -0.358040
v -0.517492 -0.412545 -0.434029
v -0.428223 -0.486478 -0.432113
v 0.183976 -0.546091 -0.512863
v 0.152621 -0.546091 -0.523052
v 0.092453 -0.486478 -0.601290
v 0.163547 -0.412545 -0.655310
v 0.252876 -0.412545 -0.626285
v 0.278640 -0.486478 -0.540793
v 0.901366 -0.073933 0.262050
v 0.951058 0.000000 0.208310
v 0.941210 0.084596 0.255277
v 0.905808 0.083741 0.341888
v 0.891867 0.000000 0.390483
v 0.885697 -0.075674 0.320942
v 0.951058 0.000000 -0.208310
v 0.901366 -0.073933 -0.262050
v 0.885697 -0.075674 -0.320942
v 0.891867 0.000000 -0.390483
v 0.905808 0.083741 -0.341888
v 0.941210 0.084596 -0.255277
v 0.029309 -0.073933 0.938228
v 0.095773 0.000000 0.968881
v 0.048062 0.084596 0.974029
v -0.045250 0.083741 0.967124
v -0.095773 0.000000 0.968881
v -0.031543 -0.075674 0.941524
v 0.492012 0.000000 0.840135
v 0.527766 -0.073933 0.776269
v 0.578934 -0.075674 0.743168
v 0.646977 0.000000 0.727547
v 0.605069 0.083741 0.755823
v 0.533636 0.084595 0.816256
v -0.883252 -0.073933 0.317799
v -0.891867 0.000000 0.390483
v -0.911506 0.084595 0.346698
v -0.933773 0.083742 0.255820
v -0.951058 0.000000 0.208310
v -0.905191 -0.075674 0.260944
v -0.646977 0.000000 0.727547
v -0.575188 -0.073933 0.741814
v -0.527895 -0.075674 0.780250
v -0.492012 0.000000 0.840135
v -0.531855 0.083742 0.809016
v -0.611404 0.084595 0.759754
v -0.575188 -0.073933 -0.741814
v -0.646977 0.000000 -0.727547
v -0.611404 0.084595 -0.759754
v -0.531855 0.083742 -0.809016
v -0.492012 0.000000 -0.840135
v -0.527895 -0.075674 -0.780250
v -0.891867 0.000000 -0.390483
v -0.883252 -0.073933 -0.317799
v -0.905191 -0.075674 -0.260944
v -0.951058 0.000000 -0.208310
v -0.933773 0.083742 -0.255820
v -0.911506 0.084595 -0.346698
v 0.527766 -0.073933 -0.776269
v 0.492012 0.000000 -0.840135
v 0.533636 0.084595 -0.816256
v 0.605069 0.083741 -0.755823
v 0.646977 0.000000 -0.727547
v 0.578934 -0.075674 -0.743168
v 0.095773 0.000000 -0.968881
v 0.029309 -0.073933 -0.938228
v -0.031543 -0.075674 -0.941524
v -0.095773 0.000000 -0.968881
v -0.045250 0.083741 -0.967124
v 0.048062 0.084596 -0.974029
v 0.670906 0.402737 0.553191
v 0.733439 0.402737 0.467121
v 0.726588 0.486478 0.406903
v 0.660061 0.529551 0.413427
v 0.597164 0.529550 0.499997
v 0.611518 0.486478 0.565284
v -0.318800 0.402736 0.809013
v -0.217619 0.402737 0.841888
v -0.162466 0.486478 0.816764
v -0.189228 0.529551 0.755508
v -0.290996 0.529551 0.722441
v -0.348653 0.486478 0.756267
v -0.867932 0.402736 -0.053193
v -0.867932 0.402736 0.053193
v -0.826994 0.486478 0.097885
v -0.777006 0.529551 0.053503
v -0.777006 0.529551 -0.053503
v -0.826994 0.486478 -0.097885
v -0.217619 0.402737 -0.841888
v -0.318800 0.402736 -0.809013
v -0.348653 0.486478 -0.756267
v -0.290996 0.529551 -0.722441
v -0.189228 0.529551 -0.755508
v -0.162466 0.486478 -0.816764
v 0.733439 0.402737 -0.467121
v 0.670906 0.402737 -0.553191
v 0.611518 0.486478 -0.565284
v 0.597164 0.529550 -0.499997
v 0.660061 0.529551 -0.413427
v 0.726588 0.486478 -0.406903
v 0.253481 0.692178 0.499996
v 0.221647 0.735251 0.418526
v 0.131337 0.735251 0.404222
v 0.066682 0.735251 0.468876
v 0.088814 0.692178 0.553499
v 0.188251 0.678926 0.579387
v 0.466538 0.735251 0.081469
v 0.553858 0.692178 0.086570
v 0.609207 0.678926 0.000000
v 0.553858 0.692178 -0.086570
v 0.466538 0.735251 -0.081469
v 0.425028 0.735251 0.000000
v -0.397195 0.692178 0.395582
v -0.329549 0.735251 0.340131
v -0.343853 0.735251 0.249821
v -0.425323 0.735251 0.208309
v -0.498964 0.692178 0.255509
v -0.492857 0.678926 0.358078
v -0.498964 0.692178 -0.255509
v -0.425323 0.735251 -0.208309
v -0.343853 0.735251 -0.249821
v -0.329549 0.735251 -0.340131
v -0.397195 0.692178 -0.395582
v -0.492857 0.678926 -0.358078
v 0.088814 0.692178 -0.553499
v 0.066682 0.735251 -0.468876
v 0.131337 0.735251 -0.404222
v 0.221647 0.735251 -0.418526
v 0.253481 0.692178 -0.499996
v 0.188251 0.678926 -0.579387
vt 0.636363 0.078731
vt 0.661678 0.043847
vt 0.656503 0.034883
vt 0.616223 0.034883
vt 0.611048 0.043847
vt 0.636363 0.078731
vt 0.720201 0.169708
vt 0.704201 0.157461
vt 0.659434 0.157461
vt 0.643271 0.169426
vt 0.674910 0.224226
vt 0.688888 0.223944
vt 0.292867 0.034883
vt 0.252587 0.034883
vt 0.247412 0.043847
vt 0.272726 0.078731
vt 0.272728 0.078731
vt 0.298042 0.043847
vt 0.474685 0.034883
vt 0.434405 0.034883
vt 0.429230 0.043847
vt 0.454545 0.078731
vt 0.454545 0.078731
vt 0.479860 0.043847
vt 0.838321 0.034883
vt 0.798041 0.034883
vt 0.792866 0.043847
vt 0.818181 0.078731
vt 0.818181 0.078731
vt 0.843496 0.043847
vt 0.734343 0.169708
vt 0.696630 0.236191
vt 0.757914 0.236191
vt 0.765656 0.223944
vt 0.916161 0.169708
vt 0.902019 0.169708
vt 0.870706 0.223944
vt 0.878448 0.236191
vt 0.939732 0.236191
vt 0.947474 0.223944
vt 0.188889 0.169708
vt 0.174747 0.169708
vt 0.143434 0.223944
vt 0.151176 0.236191
vt 0.212460 0.236191
vt 0.220202 0.223944
vt 0.370707 0.169708
vt 0.356565 0.169708
vt 0.325252 0.223944
vt 0.332994 0.236191
vt 0.394278 0.236191
vt 0.402020 0.223944
vt 0.552525 0.169708
vt 0.538383 0.169708
vt 0.507070 0.223944
vt 0.514812 0.236191
vt 0.576096 0.236191
vt 0.583838 0.223944
vt 0.871184 0.091805
vt 0.856195 0.091618
vt 0.825622 0.144573
vt 0.841252 0.157461
vt 0.886019 0.157461
vt 0.901542 0.144387
vt 0.143912 0.091805
vt 0.128923 0.091618
vt 0.098350 0.144573
vt 0.113980 0.157461
vt 0.158747 0.157461
vt 0.174270 0.144387
vt 0.325730 0.091805
vt 0.310741 0.091618
vt 0.280168 0.144573
vt 0.295798 0.157461
vt 0.340565 0.157461
vt 0.356088 0.144387
vt 0.613292 0.157461
vt 0.628922 0.144573
vt 0.598349 0.091618
vt 0.583360 0.091805
vt 0.553002 0.144387
vt 0.568525 0.157461
vt 0.855731 0.249882
vt 0.848823 0.236191
vt 0.787539 0.236191
vt 0.780631 0.249882
vt 0.810277 0.301230
vt 0.826085 0.301230
vt 0.901220 0.328552
vt 0.892164 0.314921
vt 0.835107 0.314921
vt 0.828472 0.332746
vt 0.853344 0.375826
vt 0.871506 0.380020
vt 0.173948 0.328553
vt 0.164892 0.314921
vt 0.107835 0.314921
vt 0.101200 0.332746
vt 0.126072 0.375826
vt 0.144234 0.380020
vt 0.355766 0.328552
vt 0.346710 0.314921
vt 0.289653 0.314921
vt 0.283018 0.332746
vt 0.307890 0.375826
vt 0.326052 0.380020
vt 0.537584 0.328552
vt 0.528528 0.314921
vt 0.471471 0.314921
vt 0.464836 0.332746
vt 0.489708 0.375826
vt 0.507870 0.380020
vt 0.764020 0.408732
vt 0.757914 0.393651
vt 0.696630 0.393651
vt 0.690524 0.408732
vt 0.718565 0.457301
vt 0.735979 0.457301
vt 0.090910 0.078731
vt 0.090908 0.078731
vt 0.052895 0.091618
vt 0.083468 0.144573
vt 0.673913 0.249882
vt 0.667005 0.236191
vt 0.605721 0.236191
vt 0.598813 0.249882
vt 0.628459 0.301230
vt 0.644267 0.301230
vt 0.582202 0.408732
vt 0.576096 0.393651
vt 0.514812 0.393651
vt 0.508706 0.408732
vt 0.536747 0.457301
vt 0.554161 0.457301
vt 0.583038 0.380020
vt 0.553324 0.328553
vt 0.492095 0.249882
vt 0.485187 0.236191
vt 0.423903 0.236191
vt 0.416995 0.249882
vt 0.446641 0.301230
vt 0.462449 0.301230
vt 0.400384 0.408732
vt 0.394278 0.393651
vt 0.332994 0.393651
vt 0.326888 0.408732
vt 0.354929 0.457301
vt 0.372343 0.457301
vt 0.401220 0.380020
vt 0.371506 0.328552
vt 0.310277 0.249882
vt 0.303369 0.236191
vt 0.242085 0.236191
vt 0.235177 0.249882
vt 0.264823 0.301230
vt 0.280631 0.301230
vt 0.218566 0.408732
vt 0.212460 0.393651
vt 0.151176 0.393651
vt 0.145070 0.408732
vt 0.173111 0.457301
vt 0.190525 0.457301
vt 0.219402 0.380020
vt 0.189688 0.328553
vt 0.128459 0.249882
vt 0.121551 0.236191
vt 0.060267 0.236191
vt 0.053359 0.249882
vt 0.083005 0.301230
vt 0.098813 0.301230
vt 0.945838 0.408732
vt 0.939732 0.393651
vt 0.878448 0.393651
vt 0.872342 0.408732
vt 0.900383 0.457301
vt 0.917797 0.457301
vt 0.946675 0.380020
vt 0.916961 0.328552
vt 0.583084 0.249743
vt 0.553278 0.301369
vt 0.562380 0.314921
vt 0.619437 0.314921
vt 0.626072 0.332746
vt 0.601200 0.375826
vt 0.946720 0.249743
vt 0.871460 0.249743
vt 0.901266 0.301369
vt 0.916915 0.301369
vt 0.401266 0.249743
vt 0.371460 0.301369
vt 0.380562 0.314921
vt 0.437619 0.314921
vt 0.444254 0.332746
vt 0.419382 0.375826
vt 0.764856 0.380020
vt 0.735142 0.328552
vt 0.719402 0.328553
vt 0.689688 0.380020
vt 0.219448 0.249743
vt 0.189642 0.301369
vt 0.198744 0.314921
vt 0.255801 0.314921
vt 0.262436 0.332746
vt 0.237564 0.375826
vt 0.326006 0.249743
vt 0.355812 0.301368
vt 0.962449 0.249882
vt 0.926017 0.314921
vt 0.983074 0.314921
vt 0.992096 0.301230
vt 0.989709 0.332746
vt 0.964836 0.375826
vt 0.144188 0.249743
vt 0.173994 0.301369
vt 0.764902 0.249743
vt 0.735096 0.301369
vt 0.744198 0.314921
vt 0.801255 0.314921
vt 0.807890 0.332746
vt 0.783018 0.375826
vt 0.507824 0.249743
vt 0.537630 0.301369
vt 0.710346 0.314921
vt 0.653289 0.314921
vt 0.646654 0.332746
vt 0.671526 0.375826
vt 0.689642 0.249743
vt 0.719448 0.301369
vt 0.279635 0.169426
vt 0.311274 0.224226
vt 0.493092 0.224226
vt 0.461453 0.169426
vt 0.447637 0.169426
vt 0.415998 0.224226
vt 0.097817 0.169426
vt 0.129456 0.224226
vt 0.265819 0.169426
vt 0.234180 0.224226
vt 0.825089 0.169426
vt 0.856727 0.224226
vt 0.629455 0.169426
vt 0.597817 0.224226
vt 0.719724 0.144387
vt 0.689366 0.091805
vt 0.674377 0.091618
vt 0.643804 0.144573
vt 0.492559 0.091618
vt 0.416531 0.091618
vt 0.447104 0.144573
vt 0.461986 0.144573
vt 0.507548 0.091805
vt 0.477616 0.157461
vt 0.522383 0.157461
vt 0.537906 0.144387
vt 0.234713 0.091618
vt 0.265286 0.144573
vt 0.431474 0.157461
vt 0.386707 0.157461
vt 0.401542 0.091805
vt 0.371184 0.144387
vt 0.084001 0.169426
vt 0.052362 0.224226
vt 0.249656 0.157461
vt 0.204889 0.157461
vt 0.219724 0.091805
vt 0.189366 0.144387
vt 0.780167 0.091618
vt 0.810740 0.144573
vt 0.067838 0.157461
vt 0.023071 0.157461
vt 0.007071 0.169708
vt 0.038384 0.223944
vt 0.811273 0.169426
vt 0.779634 0.224226
vt 0.765178 0.091805
vt 0.734820 0.144387
vt 0.750343 0.157461
vt 0.795110 0.157461
vt 0.037906 0.091805
vt 0.007548 0.144387
vt 0.111049 0.034883
vt 0.065594 0.043847
vt 0.070769 0.034883
vt 0.116224 0.043847
vn 0.7330 -0.6803 0.0000
vn 0.7581 -0.6259 0.1832
vn -0.5930 -0.6803 -0.4308
vn 0.2265 -0.6803 -0.6971
vn 0.2265 -0.6803 0.6971
vn 0.6919 -0.5183 0.5027
vn -0.2643 -0.5183 0.8133
vn -0.8552 -0.5183 0.0000
vn -0.2643 -0.5183 -0.8133
vn 0.6919 -0.5183 -0.5027
vn 0.0485 -0.7761 0.6287
vn -0.5829 -0.7761 0.2404
vn -0.4088 -0.7761 -0.4801
vn 0.6129 -0.7761 -0.1481
vn 0.3069 0.1156 0.9447
vn -0.0454 0.8077 0.5878
vn -0.5731 0.8077 0.1385
vn -0.3088 0.8077 -0.5022
vn 0.3822 0.8077 -0.4489
vn 0.0000 1.0000 -0.0000
vn -0.4855 -0.7999 0.3527
vn 0.9933 0.1156 0.0000
vn 0.4085 0.8632 -0.2968
vn 0.3069 0.1156 -0.9447
vn -0.1560 0.8632 -0.4802
vn -0.8036 0.1156 -0.5838
vn -0.5049 0.8632 0.0000
vn -0.8036 0.1156 0.5838
vn -0.1560 0.8632 0.4802
vn 0.8726 0.3302 -0.3599
vn 0.5450 0.8077 -0.2248
vn -0.3026 0.2021 0.9314
vn -0.0727 0.3302 -0.9411
vn -0.0454 0.8077 -0.5878
vn 0.4085 0.8632 0.2968
vn -0.9175 0.3302 -0.2217
vn -0.5731 0.8077 -0.1385
vn -0.3026 0.2021 -0.9314
vn -0.4944 0.3302 0.8041
vn -0.3088 0.8077 0.5022
vn -0.9794 0.2021 0.0000
vn 0.6119 0.3302 0.7187
vn 0.3822 0.8077 0.4489
vn 0.7923 0.2021 -0.5756
vn 0.5450 0.8077 0.2248
vn 0.6119 0.3302 -0.7187
vn 0.7923 0.2021 0.5756
vn -0.5056 -0.6259 -0.5938
vn -0.4944 0.3302 -0.8041
vn 0.2565 -0.5578 -0.7893
vn -0.7210 -0.6259 0.2974
vn -0.9175 0.3302 0.2217
vn -0.6714 -0.5578 -0.4878
vn 0.0600 -0.6259 0.7776
vn -0.0727 0.3302 0.9411
vn 0.8300 -0.5578 0.0000
vn 0.6129 -0.7761 0.1481
vn 0.8726 0.3302 0.3599
vn 0.1854 -0.7999 -0.5707
vn 0.3303 -0.7761 -0.5372
vn 0.4085 -0.6259 -0.6644
vn -0.4855 -0.7999 -0.3527
vn 0.0600 -0.6259 -0.7776
vn 0.0485 -0.7761 -0.6287
vn -0.6714 -0.5578 0.4878
vn -0.7210 -0.6259 -0.2974
vn -0.5829 -0.7761 -0.2404
vn 0.1854 -0.7999 0.5707
vn -0.5056 -0.6259 0.5938
vn 0.7581 -0.6259 -0.1832
vn 0.2565 -0.5578 0.7893
vn 0.3303 -0.7761 0.5372
vn -0.4088 -0.7761 0.4801
vn 0.6001 -0.7999 0.0000
vn 0.4085 -0.6259 0.6644
vn -0.0000 -1.0000 -0.0000
vn 0.5808 -0.6961 0.4220
vn -0.2219 -0.6961 0.6828
vn -0.7179 -0.6961 -0.0000
vn -0.2219 -0.6961 -0.6828
vn 0.5808 -0.6961 -0.4220
vn 0.2604 0.5382 0.8016
vn -0.6818 0.5382 0.4954
vn -0.6818 0.5382 -0.4954
vn 0.2604 0.5382 -0.8016
vn 0.8428 0.5382 -0.0000
vn -0.1821 -0.8078 0.5606
vn 0.4768 -0.8078 0.3464
vn 0.2218 -0.6964 0.6825
vn 0.7177 -0.6964 0.0000
vn 0.4768 -0.8078 -0.3464
vn -0.5894 -0.8078 -0.0000
vn -0.5806 -0.6964 0.4218
vn -0.1821 -0.8078 -0.5606
vn -0.5806 -0.6964 -0.4218
vn 0.2218 -0.6964 -0.6825
vn 0.9337 -0.1790 0.3102
vn 0.9337 -0.1790 -0.3102
vn -0.0065 -0.1790 0.9838
vn 0.5835 -0.1790 0.7921
vn -0.9377 -0.1790 0.2978
vn -0.5730 -0.1790 0.7997
vn -0.5730 -0.1790 -0.7997
vn -0.9377 -0.1790 -0.2978
vn 0.5835 -0.1790 -0.7921
vn -0.0065 -0.1790 -0.9838
vn 0.6574 0.5829 0.4776
vn -0.2511 0.5829 0.7728
vn -0.8126 0.5829 0.0000
vn -0.2511 0.5829 -0.7728
vn 0.6574 0.5829 -0.4776
vn 0.1065 0.9388 0.3277
vn 0.3445 0.9388 0.0000
vn -0.2787 0.9388 0.2025
vn -0.2787 0.9388 -0.2025
vn 0.1065 0.9388 -0.3277
vn -0.5930 -0.6803 0.4308
usemtl None
s off
f 70/1/1 69/2/1 5/3/1 4/4/1 87/5/1 86/6/1
f 8/7/2 7/8/2 84/9/2 83/10/2 121/11/2 126/12/2
f 3/13/3 2/14/3 96/15/3 95/16/3 103/17/3 108/18/3
f 4/19/4 3/20/4 108/21/4 107/22/4 88/23/4 87/24/4
f 1/25/5 5/26/5 69/27/5 68/28/5 61/29/5 66/30/5
f 9/31/6 8/7/6 126/12/6 125/32/6 142/33/6 141/34/6
f 13/35/7 12/36/7 138/37/7 137/38/7 154/39/7 153/40/7
f 18/41/8 17/42/8 150/43/8 149/44/8 166/45/8 165/46/8
f 23/47/9 22/48/9 162/49/9 161/50/9 178/51/9 177/52/9
f 29/53/10 28/54/10 174/55/10 173/56/10 130/57/10 129/58/10
f 63/59/11 62/60/11 73/61/11 78/62/11 11/63/11 15/64/11
f 93/65/12 92/66/12 97/67/12 102/68/12 16/69/12 20/70/12
f 105/71/13 104/72/13 109/73/13 114/74/13 21/75/13 25/76/13
f 81/77/14 80/78/14 85/79/14 90/80/14 26/81/14 30/82/14
f 135/83/15 134/84/15 139/85/15 144/86/15 31/87/15 35/88/15
f 190/89/16 189/90/16 34/91/16 33/92/16 216/93/16 215/94/16
f 196/95/17 195/96/17 39/97/17 38/98/17 228/99/17 227/100/17
f 202/101/18 201/102/18 44/103/18 43/104/18 234/105/18 233/106/18
f 208/107/19 207/108/19 49/109/19 48/110/19 240/111/19 239/112/19
f 213/113/20 212/114/20 217/115/20 222/116/20 60/117/20 59/118/20
f 92/66/21 91/119/21 65/120/21 64/121/21 98/122/21 97/67/21
f 123/123/22 122/124/22 127/125/22 132/126/22 51/127/22 55/128/22
f 222/129/20 221/130/20 238/131/20 237/132/20 56/133/20 60/134/20
f 221/130/23 220/135/23 209/136/23 208/107/23 239/112/23 238/131/23
f 171/137/24 170/138/24 175/139/24 180/140/24 46/141/24 50/142/24
f 237/143/20 236/144/20 232/145/20 231/146/20 57/147/20 56/148/20
f 236/144/25 235/149/25 203/150/25 202/101/25 233/106/25 232/145/25
f 159/151/26 158/152/26 163/153/26 168/154/26 41/155/26 45/156/26
f 231/157/20 230/158/20 226/159/20 225/160/20 58/161/20 57/162/20
f 230/158/27 229/163/27 197/164/27 196/95/27 227/100/27 226/159/27
f 147/165/28 146/166/28 151/167/28 156/168/28 36/169/28 40/170/28
f 225/171/20 224/172/20 214/173/20 213/174/20 59/175/20 58/176/20
f 224/172/29 223/177/29 191/178/29 190/89/29 215/94/29 214/173/29
f 132/126/30 131/179/30 205/180/30 210/181/30 52/182/30 51/127/30
f 53/183/31 52/182/31 210/181/31 209/136/31 220/135/31 219/184/31
f 155/185/32 154/39/32 137/38/32 136/186/32 188/187/32 187/188/32
f 180/140/33 179/189/33 199/190/33 204/191/33 47/192/33 46/141/33
f 48/193/34 47/192/34 204/191/34 203/150/34 235/149/34 240/194/34
f 212/114/35 211/195/35 185/196/35 184/197/35 218/198/35 217/115/35
f 168/154/36 167/199/36 193/200/36 198/201/36 42/202/36 41/155/36
f 43/203/37 42/202/37 198/201/37 197/164/37 229/163/37 234/204/37
f 179/189/38 178/51/38 161/50/38 160/205/38 200/206/38 199/190/38
f 156/207/39 155/185/39 187/188/39 192/208/39 37/209/39 36/210/39
f 38/211/40 37/209/40 192/208/40 191/178/40 223/177/40 228/212/40
f 167/199/41 166/45/41 149/44/41 148/213/41 194/214/41 193/200/41
f 144/86/42 143/215/42 181/216/42 186/217/42 32/218/42 31/87/42
f 33/219/43 32/218/43 186/217/43 185/196/43 211/195/43 216/220/43
f 131/179/44 130/57/44 173/56/44 172/221/44 206/222/44 205/180/44
f 184/197/45 183/223/45 54/224/45 53/225/45 219/226/45 218/198/45
f 172/221/46 171/137/46 50/142/46 49/109/46 207/108/46 206/222/46
f 143/215/47 142/33/47 125/32/47 124/227/47 182/228/47 181/216/47
f 22/48/48 21/75/48 114/74/48 113/229/48 157/230/48 162/49/48
f 160/205/49 159/151/49 45/156/49 44/103/49 201/102/49 200/206/49
f 170/138/50 169/231/50 119/232/50 118/233/50 176/234/50 175/139/50
f 17/42/51 16/69/51 102/68/51 101/235/51 145/236/51 150/43/51
f 148/213/52 147/165/52 40/170/52 39/97/52 195/96/52 194/214/52
f 158/152/53 157/230/53 113/229/53 112/237/53 164/238/53 163/153/53
f 12/36/54 11/63/54 78/62/54 77/239/54 133/240/54 138/37/54
f 136/186/55 135/83/55 35/88/55 34/91/55 189/90/55 188/187/55
f 122/124/56 121/11/56 83/10/56 82/241/56 128/242/56 127/125/56
f 7/8/57 6/243/57 72/244/57 71/245/57 79/246/57 84/9/57
f 124/227/58 123/123/58 55/128/58 54/224/58 183/223/58 182/228/58
f 89/247/59 88/23/59 107/22/59 106/248/59 116/249/59 115/250/59
f 90/251/60 89/247/60 115/250/60 120/252/60 27/253/60 26/254/60
f 28/54/61 27/253/61 120/252/61 119/232/61 169/231/61 174/55/61
f 104/72/62 103/17/62 95/16/62 94/255/62 110/256/62 109/73/62
f 118/233/63 117/257/63 24/258/63 23/47/63 177/52/63 176/234/63
f 106/248/64 105/259/64 25/260/64 24/258/64 117/257/64 116/249/64
f 146/166/65 145/236/65 101/235/65 100/261/65 152/262/65 151/167/65
f 112/237/66 111/263/66 19/264/66 18/41/66 165/46/66 164/238/66
f 94/255/67 93/265/67 20/266/67 19/264/67 111/263/67 110/256/67
f 62/60/68 61/29/68 68/28/68 67/267/68 74/268/68 73/61/68
f 100/261/69 99/269/69 14/270/69 13/271/69 153/272/69 152/262/69
f 82/241/70 81/77/70 30/82/70 29/53/70 129/58/70 128/242/70
f 134/84/71 133/240/71 77/239/71 76/273/71 140/274/71 139/85/71
f 67/267/72 72/275/72 6/276/72 10/277/72 75/278/72 74/268/72
f 64/121/73 63/279/73 15/280/73 14/270/73 99/269/73 98/122/73
f 80/78/74 79/246/74 71/245/74 70/1/74 86/6/74 85/79/74
f 76/273/75 75/278/75 10/277/75 9/31/75 141/34/75 140/274/75
f 1/25/76 2/281/76 3/13/76 4/19/76 5/3/76
f 6/276/77 7/8/77 8/7/77 9/31/77 10/277/77
f 11/63/78 12/36/78 13/35/78 14/270/78 15/280/78
f 16/69/79 17/42/79 18/41/79 19/264/79 20/266/79
f 21/75/80 22/48/80 23/47/80 24/258/80 25/260/80
f 26/81/81 27/253/81 28/54/81 29/53/81 30/82/81
f 31/87/82 32/218/82 33/219/82 34/91/82 35/88/82
f 36/169/83 37/209/83 38/211/83 39/97/83 40/170/83
f 41/155/84 42/202/84 43/203/84 44/103/84 45/156/84
f 46/141/85 47/192/85 48/193/85 49/109/85 50/142/85
f 51/127/86 52/182/86 53/183/86 54/224/86 55/128/86
f 56/133/20 57/147/20 58/161/20 59/175/20 60/117/20
f 61/29/87 62/60/87 63/59/87 64/121/87 65/120/87 66/282/87
f 67/267/88 68/28/88 69/27/88 70/1/88 71/245/88 72/244/88
f 73/61/89 74/268/89 75/278/89 76/273/89 77/239/89 78/62/89
f 79/246/90 80/78/90 81/77/90 82/241/90 83/10/90 84/9/90
f 85/79/91 86/6/91 87/5/91 88/23/91 89/247/91 90/251/91
f 91/119/92 92/66/92 93/65/92 94/255/92 95/16/92 96/15/92
f 97/67/93 98/122/93 99/269/93 100/261/93 101/235/93 102/68/93
f 103/17/94 104/72/94 105/71/94 106/248/94 107/22/94 108/21/94
f 109/73/95 110/256/95 111/263/95 112/237/95 113/229/95 114/74/95
f 115/250/96 116/249/96 117/257/96 118/233/96 119/232/96 120/252/96
f 121/11/97 122/124/97 123/123/97 124/227/97 125/32/97 126/12/97
f 127/125/98 128/242/98 129/58/98 130/57/98 131/179/98 132/126/98
f 133/240/99 134/84/99 135/83/99 136/186/99 137/38/99 138/37/99
f 139/85/100 140/274/100 141/34/100 142/33/100 143/215/100 144/86/100
f 145/236/101 146/166/101 147/165/101 148/213/101 149/44/101 150/43/101
f 151/167/102 152/262/102 153/272/102 154/39/102 155/185/102 156/207/102
f 157/230/103 158/152/103 159/151/103 160/205/103 161/50/103 162/49/103
f 163/153/104 164/238/104 165/46/104 166/45/104 167/199/104 168/154/104
f 169/231/105 170/138/105 171/137/105 172/221/105 173/56/105 174/55/105
f 175/139/106 176/234/106 177/52/106 178/51/106 179/189/106 180/140/106
f 181/216/107 182/228/107 183/223/107 184/197/107 185/196/107 186/217/107
f 187/188/108 188/187/108 189/90/108 190/89/108 191/178/108 192/208/108
f 193/200/109 194/214/109 195/96/109 196/95/109 197/164/109 198/201/109
f 199/190/110 200/206/110 201/102/110 202/101/110 203/150/110 204/191/110
f 205/180/111 206/222/111 207/108/111 208/107/111 209/136/111 210/181/111
f 211/195/112 212/114/112 213/113/112 214/173/112 215/94/112 216/93/112
f 217/115/113 218/198/113 219/226/113 220/135/113 221/130/113 222/129/113
f 223/177/114 224/172/114 225/171/114 226/159/114 227/100/114 228/99/114
f 229/163/115 230/158/115 231/157/115 232/145/115 233/106/115 234/105/115
f 235/149/116 236/144/116 237/143/116 238/131/116 239/112/116 240/111/116
f 2/281/117 1/283/117 66/282/117 65/120/117 91/119/117 96/284/117
